<svg xmlns="http://www.w3.org/2000/svg" width="36" height="36" viewBox="0 0 36 36" fill="none">
<rect x="1.25" y="1.25" width="33.5" height="33.5" rx="16.75" fill="#EAF3FF"/>
<path d="M24.6673 25.5V23.8333C24.6673 22.9493 24.3161 22.1014 23.691 21.4763C23.0659 20.8512 22.218 20.5 21.334 20.5H14.6673C13.7833 20.5 12.9354 20.8512 12.3103 21.4763C11.6852 22.1014 11.334 22.9493 11.334 23.8333V25.5M21.334 13.8333C21.334 15.6743 19.8416 17.1667 18.0007 17.1667C16.1597 17.1667 14.6673 15.6743 14.6673 13.8333C14.6673 11.9924 16.1597 10.5 18.0007 10.5C19.8416 10.5 21.334 11.9924 21.334 13.8333Z" stroke="#1A73E8" strokeWidth="1.66667" strokeLinecap="round" strokeLinejoin="round"/>
<rect x="1.25" y="1.25" width="33.5" height="33.5" rx="16.75" stroke="white" strokeWidth="1.5"/>
</svg>