<svg viewBox="0 0 20 20" fill="none" xmlns="http://www.w3.org/2000/svg"><path d="M11.8129 3.51886C11.8139 2.4957 9.72756 1.66699 7.15693 1.66699C4.5863 1.66699 2.50186 2.49663 2.5 3.51886M2.5 3.51886C2.5 4.54202 4.58444 5.37074 7.15693 5.37074C9.72942 5.37074 11.8139 4.54202 11.8139 3.51886L11.8139 10.7041M2.5 3.51886V14.63C2.50093 15.6532 4.58537 16.4819 7.15693 16.4819C8.40406 16.4819 9.5301 16.2847 10.3656 15.9671M2.50093 7.22259C2.50093 8.24575 4.58538 9.07446 7.15787 9.07446C9.73036 9.07446 11.8148 8.24575 11.8148 7.22259M10.4214 12.2458C9.58133 12.5746 8.42921 12.7783 7.15693 12.7783C4.58537 12.7783 2.50093 11.9495 2.50093 10.9264M17.106 11.2209C18.7424 12.8477 18.7424 15.4866 17.106 17.1135C15.4696 18.7404 12.8151 18.7404 11.1787 17.1135C9.54221 15.4866 9.54221 12.8477 11.1787 11.2209C12.8151 9.59399 15.4696 9.59399 17.106 11.2209Z" stroke="#667085" stroke-width="1.67" stroke-linecap="round" stroke-linejoin="round"></path></svg>