<svg xmlns="http://www.w3.org/2000/svg" xmlns:xlink="http://www.w3.org/1999/xlink" version="1.1" id="Layer_1" x="0px" y="0px" width="100%" viewBox="0 0 682 738" enable-background="new 0 0 682 738" xml:space="preserve">
<path fill="none" opacity="1.000000" stroke="none" d=" M60.000000,739.000000   C40.337898,739.000000 20.675793,739.000000 1.010268,739.000000   C1.006845,493.061646 1.006845,247.123291 1.006845,1.092468   C228.218903,1.092468 455.437836,1.092468 683.000000,1.092468   C683.000000,122.357193 683.000000,243.714722 682.701477,365.829651   C680.531494,364.956573 678.660034,363.326050 676.788574,361.695526   C676.635315,358.714874 676.320862,355.107635 674.353943,353.355499   C672.779541,351.953125 669.196899,352.805328 666.088806,352.633911   C664.170837,346.846741 660.085327,345.959473 654.573547,350.887695   C649.986694,354.988861 645.158386,358.820068 639.794922,363.308167   C640.316162,360.678528 641.051758,358.915283 640.887451,357.240265   C640.728088,355.616089 640.049683,353.624329 638.888611,352.597321   C635.705261,349.781494 632.326721,350.912903 629.949829,355.436523   C627.254639,360.565979 624.744019,365.792480 622.007385,370.652344   C619.416626,366.556763 617.055542,362.728027 614.512939,359.023804   C599.410706,337.021790 581.942993,317.028168 562.319397,298.995331   C554.436157,291.751160 546.007263,284.986053 537.229431,278.858521   C525.494629,270.666809 513.322998,263.069397 501.077301,255.648651   C484.425659,245.558014 466.468323,238.267929 448.020569,231.717773   C445.011475,224.727921 442.842041,217.578812 438.854675,211.652939   C430.871185,199.788193 419.801849,191.768021 405.692169,187.864655   C390.331696,183.615295 374.939392,181.523346 359.317902,185.461807   C341.846741,189.866623 329.129425,200.724960 319.546082,216.012909   C311.789673,216.676758 304.362976,216.755005 297.193115,218.151718   C282.395813,221.034256 267.735413,224.619888 253.059448,227.530182   C255.378555,218.961044 256.794952,210.835373 255.072144,202.203201   C250.681396,180.203400 233.361130,164.398148 211.383224,162.197372   C207.107788,161.769272 205.409653,160.272293 203.945312,156.650696   C200.385437,147.846359 194.498215,140.636871 186.907990,135.023346   C171.675812,123.758041 154.216019,119.568352 135.665298,121.271851   C128.483734,121.931313 121.536057,125.396484 114.564537,127.821259   C113.446716,128.210052 112.764412,129.850998 111.880775,130.913086   C112.143608,131.450165 112.406448,131.987244 112.669281,132.524323   C128.985306,122.040443 146.302979,122.188171 163.809235,127.186600   C181.836731,132.333862 194.864151,143.420959 202.283951,160.914902   C196.864197,163.075241 191.933563,164.613464 187.413040,166.946365   C181.208588,170.148285 179.274139,175.843079 180.030518,182.530365   C180.612045,187.672058 183.523880,191.056671 188.400009,192.636459   C196.833435,195.368774 206.831955,188.520844 207.884644,178.998962   C208.381012,174.509125 207.969772,169.918915 207.969772,165.375183   C237.056793,165.438293 261.331055,196.022186 248.614777,229.140884   C247.997986,229.435532 247.784576,229.754257 247.501434,229.838440   C218.779266,238.377838 192.107513,251.246231 166.955902,267.477112   C144.515030,281.958710 124.430878,299.210083 106.104897,318.530151   C100.614433,324.318451 95.876770,330.820831 90.493118,336.843018   C89.009277,335.839020 87.845192,334.960602 86.640686,334.141632   C80.234695,329.786041 77.295639,330.967926 75.786606,337.239532   C72.434662,337.777496 68.661980,337.294800 67.122269,338.923309   C65.441818,340.700684 65.829536,344.433411 65.197769,347.975006   C64.660423,348.625793 62.714443,350.037292 62.132561,351.879639   C60.832577,355.995636 63.274593,358.670074 67.125839,360.415253   C59.843273,363.073303 59.436626,366.313080 65.009171,373.349640   C60.837574,381.002899 56.506531,388.175751 52.856441,395.679871   C41.796600,418.417389 33.286568,442.036316 27.508142,466.735046   C22.582941,487.786835 20.038336,509.101532 19.223221,530.560974   C18.699318,544.353699 20.103693,558.243958 21.053869,572.062317   C22.312847,590.371399 26.121016,608.201477 30.824947,625.964478   C39.726181,659.577393 54.267975,690.498657 73.084511,719.555481   C76.665359,725.085144 80.410820,730.508179 83.606674,735.982178   C76.692078,735.985718 70.250938,736.018250 63.810364,735.971863   C61.648010,735.956360 59.715931,736.029602 60.000000,739.000000  M452.000702,161.546326   C452.012726,117.839172 483.983948,91.450371 521.827393,86.911133   C521.885376,87.727737 521.935852,88.533302 522.000793,89.337700   C522.804810,99.291656 524.869690,108.683212 533.044983,115.569878   C538.797241,120.415443 545.294556,121.536697 552.092896,118.855530   C559.023804,116.122025 561.171021,110.233879 561.037720,103.113434   C560.856689,93.440659 553.143982,84.967926 542.137024,83.086906   C537.286987,82.258064 532.339172,82.000755 527.109009,81.449524   C527.266235,80.155518 527.208191,78.982361 527.565430,77.953423   C530.456543,69.626816 535.072205,62.544701 542.260742,57.199341   C554.277649,48.263714 567.633667,42.946045 582.613281,42.028000   C592.800781,41.403645 602.343994,43.765400 611.282959,48.726219   C612.096069,49.177502 613.432373,48.686028 614.525757,48.632347   C613.994751,47.749977 613.674988,46.483562 612.894714,46.054520   C610.135071,44.537155 607.309937,43.041843 604.345215,42.010674   C588.141724,36.374722 572.183594,38.231430 556.793213,44.767746   C540.779419,51.568817 528.047729,61.873684 523.444824,79.812164   C523.113525,81.103447 521.301086,82.493439 519.892944,82.939171   C515.801514,84.234245 511.509094,84.884781 507.395752,86.121574   C488.763031,91.724022 472.520782,101.009064 461.661957,117.720299   C445.926575,141.936249 446.165161,168.298737 452.109314,195.254333   C452.305664,196.144760 453.723663,196.765808 454.572205,197.512436   C454.768829,196.372269 455.225708,195.207703 455.121582,194.095718   C454.135620,183.569366 453.054230,173.051987 452.000702,161.546326  M641.622314,78.585892   C643.424805,76.006180 645.060791,73.283752 647.098816,70.905907   C648.145203,69.684982 649.836914,68.904602 651.378296,68.266281   C652.190918,67.929771 653.307007,68.326256 656.097778,68.513046   C648.623657,63.639336 654.706482,63.080406 656.817871,61.332283   C651.468201,59.530182 650.222168,57.325905 650.908936,51.578648   C651.417908,47.319382 647.706238,42.722710 643.213196,42.047962   C638.094971,41.279327 634.265930,43.868767 632.993286,48.576111   C632.528137,50.296589 631.459961,51.946579 630.347229,53.380741   C627.793701,56.672024 625.605042,59.866287 628.605957,64.064079   C629.229736,64.936584 629.802490,66.141121 629.747253,67.157204   C629.256104,76.188080 632.044312,79.181252 641.622314,78.585892  M76.162712,135.439438   C81.864532,136.625443 82.908875,140.774551 83.770905,145.817917   C84.111176,147.808685 87.435890,150.169632 89.802032,150.761566   C95.843376,152.272934 98.208633,148.630676 100.308838,142.704529   C102.691589,135.981155 103.605850,130.546555 100.280983,123.759239   C98.054489,119.214119 96.607895,116.050812 91.589027,116.015816   C86.348686,115.979286 83.924904,118.496323 82.895538,124.199463   C82.620262,125.724594 81.041809,127.111336 79.829224,128.330444   C79.203697,128.959366 78.067955,129.080811 77.162750,129.431549   C78.008438,130.094467 78.854126,130.757385 80.098747,131.733002   C78.758072,132.815399 77.541084,133.797943 76.162712,135.439438  z"/>
<path fill="none" opacity="1.000000" stroke="none" d=" M60.468658,739.000000   C59.715931,736.029602 61.648010,735.956360 63.810364,735.971863   C70.250938,736.018250 76.692078,735.985718 84.070435,736.031982   C86.825310,736.222168 88.642715,736.488159 90.460220,736.488892   C147.229706,736.510803 203.999207,736.508667 260.768707,736.496887   C262.376251,736.496582 263.983795,736.350220 265.335968,736.284424   C265.658112,735.773682 265.820343,735.635437 265.825348,735.491699   C266.928070,703.733154 268.019745,671.974182 269.572693,640.188721   C347.002838,640.159973 423.972015,640.157898 501.026825,640.599182   C502.450165,672.723389 503.787872,704.404297 505.135803,736.327637   C505.994751,736.388367 506.796692,736.494446 507.598694,736.494751   C538.224182,736.504639 568.849670,736.512207 599.475159,736.484009   C600.956726,736.482666 602.438110,736.155640 604.393250,735.982056   C613.670898,735.985596 622.479614,735.838440 631.274353,736.124695   C632.879028,736.176941 634.426270,737.996338 636.000000,739.000000   C444.312439,739.000000 252.624878,739.000000 60.468658,739.000000  z"/>
<path fill="none" opacity="1.000000" stroke="none" d=" M636.468628,739.000000   C634.426270,737.996338 632.879028,736.176941 631.274353,736.124695   C622.479614,735.838440 613.670898,735.985596 604.511108,735.646973   C604.766663,734.370850 605.385681,733.436523 605.988098,732.491699   C614.207214,719.600891 623.242371,707.149414 630.473450,693.726196   C646.172668,664.583313 657.869202,633.849365 662.984924,600.940857   C665.254944,586.337952 667.820496,571.706543 668.756897,556.992981   C669.584045,543.994995 668.845642,530.826355 667.863342,517.803589   C666.811768,503.862671 665.120911,489.928986 662.836060,476.136780   C661.357849,467.214294 658.312378,458.551453 656.003662,449.407349   C660.767456,436.558105 665.496826,424.073761 670.240906,411.550720   C666.205383,409.139313 662.602844,406.986633 659.153992,404.535889   C663.408630,400.789093 667.466675,397.287567 671.623291,393.907349   C675.359314,390.869080 679.203552,387.963898 683.000000,385.000000   C683.000000,503.000000 683.000000,621.000000 683.000000,739.000000   C667.570496,739.000000 652.253906,739.000000 636.468628,739.000000  z"/>
<path fill="#E88862" opacity="1.000000" stroke="none" d=" M683.000000,384.555847   C679.203552,387.963898 675.359314,390.869080 671.623291,393.907349   C667.466675,397.287567 663.408630,400.789093 658.792603,404.587097   C644.727295,397.594238 631.177063,390.252075 617.746582,382.558960   C619.295349,378.464233 620.724304,374.720520 622.153198,370.976776   C624.744019,365.792480 627.254639,360.565979 629.949829,355.436523   C632.326721,350.912903 635.705261,349.781494 638.888611,352.597321   C640.049683,353.624329 640.728088,355.616089 640.887451,357.240265   C641.051758,358.915283 640.316162,360.678528 639.794922,363.308167   C645.158386,358.820068 649.986694,354.988861 654.573547,350.887695   C660.085327,345.959473 664.170837,346.846741 666.088806,352.633911   C669.196899,352.805328 672.779541,351.953125 674.353943,353.355499   C676.320862,355.107635 676.635315,358.714874 676.788574,361.695526   C678.660034,363.326050 680.531494,364.956573 682.701477,366.293549   C683.000000,367.066681 683.000000,368.133331 682.717896,369.311371   C681.014587,371.144440 679.593384,372.866150 677.819885,375.014618   C679.744202,375.752167 681.372131,376.376099 683.000000,377.000000   C683.000000,379.370575 683.000000,381.741119 683.000000,384.555847  z"/>
<path fill="none" opacity="1.000000" stroke="none" d=" M683.000000,376.562500   C681.372131,376.376099 679.744202,375.752167 677.819885,375.014618   C679.593384,372.866150 681.014587,371.144440 682.717896,369.711365   C683.000000,372.041656 683.000000,374.083344 683.000000,376.562500  z"/>
<path fill="#EBF2FF" opacity="1.000000" stroke="none" d=" M269.111725,640.215271   C268.019745,671.974182 266.928070,703.733154 265.825348,735.491699   C265.820343,735.635437 265.658112,735.773682 265.335968,736.284424   C263.983795,736.350220 262.376251,736.496582 260.768707,736.496887   C203.999207,736.508667 147.229706,736.510803 90.460220,736.488892   C88.642715,736.488159 86.825310,736.222168 84.544113,736.030151   C80.410820,730.508179 76.665359,725.085144 73.084511,719.555481   C54.267975,690.498657 39.726181,659.577393 30.824947,625.964478   C26.121016,608.201477 22.312847,590.371399 21.053869,572.062317   C20.103693,558.243958 18.699318,544.353699 19.223221,530.560974   C20.038336,509.101532 22.582941,487.786835 27.508142,466.735046   C33.286568,442.036316 41.796600,418.417389 52.856441,395.679871   C56.506531,388.175751 60.837574,381.002899 65.365685,373.317566   C72.845619,377.743347 79.817131,382.530090 86.494736,387.558899   C82.504784,389.962738 78.808739,392.124542 75.145721,394.267029   C75.452194,395.127136 75.592102,395.601959 75.786400,396.053406   C94.373528,439.244476 112.958977,482.436218 131.559509,525.621521   C136.883835,537.983093 141.626724,550.644653 147.728271,562.611877   C161.423019,589.471741 198.498703,591.475220 217.303238,566.811951   C230.109268,550.016052 243.039963,533.315002 255.995911,516.634399   C257.005646,515.334290 258.654358,514.530579 260.023010,513.528320   C260.039886,513.560486 260.078461,513.622009 260.144043,514.071289   C262.214355,544.512024 264.173004,574.506653 266.246490,604.493286   C267.070465,616.409668 268.149048,628.308472 269.111725,640.215271  z"/>
<path fill="#EBF2FF" opacity="1.000000" stroke="none" d=" M253.018692,227.916260   C267.735413,224.619888 282.395813,221.034256 297.193115,218.151718   C304.362976,216.755005 311.789673,216.676758 319.584167,216.377930   C316.804352,225.226273 312.853821,233.509109 310.454254,242.219208   C307.599091,252.582962 305.812012,263.269501 304.034760,273.895233   C301.071777,291.610382 297.559723,309.076080 288.697205,325.040955   C281.951599,337.192505 279.873047,350.293640 281.758423,364.282654   C271.226593,367.453033 263.751282,374.224274 257.636780,382.532349   C236.624817,411.082458 215.775375,439.752197 194.855255,468.369934   C193.648987,470.020081 192.365158,471.613525 190.662460,473.824005   C173.670090,434.606415 157.106110,396.377502 140.453857,357.944885   C136.074463,360.222504 132.115372,362.281525 127.967957,364.029541   C122.412842,354.705688 117.058960,345.685181 111.672050,336.684448   C109.884094,333.697083 107.306404,332.413513 104.106865,334.228882   C100.928429,336.032318 100.659836,338.847076 102.292465,341.967743   C102.900566,343.130096 103.418755,344.339478 103.977951,345.527405   C103.660866,345.763184 103.343781,345.998993 103.026695,346.234772   C98.949203,343.155212 94.871712,340.075623 90.794212,336.996063   C95.876770,330.820831 100.614433,324.318451 106.104897,318.530151   C124.430878,299.210083 144.515030,281.958710 166.955902,267.477112   C192.107513,251.246231 218.779266,238.377838 247.501434,229.838440   C247.784576,229.754257 247.997986,229.435532 248.633545,229.515610   C247.303864,233.791550 245.584579,237.778183 243.702499,242.142288   C244.726791,242.002792 245.445511,242.092712 245.572495,241.859879   C248.095551,237.234360 250.550201,232.571518 253.018692,227.916260  z"/>
<path fill="#EBF2FF" opacity="1.000000" stroke="none" d=" M622.007385,370.652344   C620.724304,374.720520 619.295349,378.464233 617.434448,382.489441   C613.372437,380.838135 609.742310,378.905396 605.771912,376.791473   C593.018921,409.447449 580.438354,441.661835 567.723328,474.220612   C566.786438,473.350891 566.364197,473.072754 566.090637,472.688751   C547.644592,446.797455 528.910828,421.103638 510.906830,394.908234   C502.414185,382.551697 492.733093,372.016815 479.114166,365.027222   C478.761017,344.245972 472.004395,325.771545 462.250732,308.379974   C457.167297,299.315765 454.260223,289.775909 453.053772,279.673492   C451.163666,263.845642 449.688782,247.968216 448.037994,232.111801   C466.468323,238.267929 484.425659,245.558014 501.077301,255.648651   C513.322998,263.069397 525.494629,270.666809 537.229431,278.858521   C546.007263,284.986053 554.436157,291.751160 562.319397,298.995331   C581.942993,317.028168 599.410706,337.021790 614.512939,359.023804   C617.055542,362.728027 619.416626,366.556763 622.007385,370.652344  z"/>
<path fill="#0B0B0B" opacity="1.000000" stroke="none" d=" M448.020569,231.717773   C449.688782,247.968216 451.163666,263.845642 453.053772,279.673492   C454.260223,289.775909 457.167297,299.315765 462.250732,308.379974   C472.004395,325.771545 478.761017,344.245972 478.711914,364.969299   C475.752075,364.584381 473.263184,363.668640 470.713867,362.975159   C454.510162,358.566986 438.484344,361.350861 422.103912,364.114258   C413.245392,359.908020 406.333649,354.399078 406.003021,344.075653   C405.710968,334.956482 405.759460,325.805359 406.195068,316.694031   C406.377808,312.871735 407.390625,309.164978 412.960602,308.848022   C420.261719,308.432556 427.299835,300.557526 428.057190,293.107269   C428.778259,286.014191 424.942749,281.281464 417.104248,277.910767   C412.447021,275.908020 408.316833,272.679840 404.061768,269.660553   C403.482666,268.132416 402.791443,266.946350 402.014679,265.428284   C398.905029,257.446594 395.880920,249.796829 392.912170,241.794800   C392.026978,239.719437 391.086426,237.996368 389.851257,236.517761   C369.743317,249.016464 348.037445,248.802338 325.686432,245.892838   C324.096954,252.751968 322.371643,259.153168 321.191803,265.653412   C320.397491,270.029602 320.374146,274.545715 319.898132,279.443054   C319.819031,282.918030 319.847656,285.949219 319.816498,289.434357   C320.775909,315.949524 328.651031,327.904083 350.028046,336.359436   C349.279602,341.489807 348.586182,346.184998 347.666351,351.145538   C345.249268,357.525116 341.642792,362.268646 334.707397,364.037750   C331.073578,363.267059 327.847900,362.469116 324.574951,362.003174   C310.267822,359.966370 296.099487,361.166962 282.019196,364.043274   C279.873047,350.293640 281.951599,337.192505 288.697205,325.040955   C297.559723,309.076080 301.071777,291.610382 304.034760,273.895233   C305.812012,263.269501 307.599091,252.582962 310.454254,242.219208   C312.853821,233.509109 316.804352,225.226273 320.030182,216.389252   C329.129425,200.724960 341.846741,189.866623 359.317902,185.461807   C374.939392,181.523346 390.331696,183.615295 405.692169,187.864655   C419.801849,191.768021 430.871185,199.788193 438.854675,211.652939   C442.842041,217.578812 445.011475,224.727921 448.020569,231.717773  z"/>
<path fill="#E88863" opacity="1.000000" stroke="none" d=" M90.493118,336.843018   C94.871712,340.075623 98.949203,343.155212 103.026695,346.234772   C103.343781,345.998993 103.660866,345.763184 103.977951,345.527405   C103.418755,344.339478 102.900566,343.130096 102.292465,341.967743   C100.659836,338.847076 100.928429,336.032318 104.106865,334.228882   C107.306404,332.413513 109.884094,333.697083 111.672050,336.684448   C117.058960,345.685181 122.412842,354.705688 127.743134,364.273560   C114.067322,372.324738 100.427986,379.820770 86.788651,387.316833   C79.817131,382.530090 72.845619,377.743347 65.517593,372.988647   C59.436626,366.313080 59.843273,363.073303 67.125839,360.415253   C63.274593,358.670074 60.832577,355.995636 62.132561,351.879639   C62.714443,350.037292 64.660423,348.625793 65.197769,347.975006   C65.829536,344.433411 65.441818,340.700684 67.122269,338.923309   C68.661980,337.294800 72.434662,337.777496 75.786606,337.239532   C77.295639,330.967926 80.234695,329.786041 86.640686,334.141632   C87.845192,334.960602 89.009277,335.839020 90.493118,336.843018  z"/>
<path fill="#29292E" opacity="1.000000" stroke="none" d=" M452.000488,162.039169   C453.054230,173.051987 454.135620,183.569366 455.121582,194.095718   C455.225708,195.207703 454.768829,196.372269 454.572205,197.512436   C453.723663,196.765808 452.305664,196.144760 452.109314,195.254333   C446.165161,168.298737 445.926575,141.936249 461.661957,117.720299   C472.520782,101.009064 488.763031,91.724022 507.395752,86.121574   C511.509094,84.884781 515.801514,84.234245 519.892944,82.939171   C521.301086,82.493439 523.113525,81.103447 523.444824,79.812164   C528.047729,61.873684 540.779419,51.568817 556.793213,44.767746   C572.183594,38.231430 588.141724,36.374722 604.345215,42.010674   C607.309937,43.041843 610.135071,44.537155 612.894714,46.054520   C613.674988,46.483562 613.994751,47.749977 614.525757,48.632347   C613.432373,48.686028 612.096069,49.177502 611.282959,48.726219   C602.343994,43.765400 592.800781,41.403645 582.613281,42.028000   C567.633667,42.946045 554.277649,48.263714 542.260742,57.199341   C535.072205,62.544701 530.456543,69.626816 527.565430,77.953423   C527.208191,78.982361 527.266235,80.155518 527.109009,81.449524   C532.339172,82.000755 537.286987,82.258064 542.137024,83.086906   C553.143982,84.967926 560.856689,93.440659 561.037720,103.113434   C561.171021,110.233879 559.023804,116.122025 552.092896,118.855530   C545.294556,121.536697 538.797241,120.415443 533.044983,115.569878   C524.869690,108.683212 522.804810,99.291656 522.000793,89.337700   C521.935852,88.533302 521.885376,87.727737 521.827393,86.911133   C483.983948,91.450371 452.012726,117.839172 452.000488,162.039169  M555.049744,112.405914   C559.356201,104.787445 559.121887,99.253296 553.723816,93.311615   C547.394043,86.344261 538.768555,85.378487 530.078857,85.250031   C527.492004,85.211784 525.928772,86.788612 525.885315,90.108238   C525.762695,99.478394 528.704712,107.264267 535.898132,113.431053   C541.780090,118.473579 548.881897,118.379883 555.049744,112.405914  z"/>
<path fill="#292A2E" opacity="1.000000" stroke="none" d=" M253.059448,227.530167   C250.550201,232.571518 248.095551,237.234360 245.572495,241.859879   C245.445511,242.092712 244.726791,242.002792 243.702499,242.142288   C245.584579,237.778183 247.303864,233.791550 249.004364,229.430191   C261.331055,196.022186 237.056793,165.438293 207.969772,165.375183   C207.969772,169.918915 208.381012,174.509125 207.884644,178.998962   C206.831955,188.520844 196.833435,195.368774 188.400009,192.636459   C183.523880,191.056671 180.612045,187.672058 180.030518,182.530365   C179.274139,175.843079 181.208588,170.148285 187.413040,166.946365   C191.933563,164.613464 196.864197,163.075241 202.283951,160.914902   C194.864151,143.420959 181.836731,132.333862 163.809235,127.186600   C146.302979,122.188171 128.985306,122.040443 112.669281,132.524323   C112.406448,131.987244 112.143608,131.450165 111.880775,130.913086   C112.764412,129.850998 113.446716,128.210052 114.564537,127.821259   C121.536057,125.396484 128.483734,121.931313 135.665298,121.271851   C154.216019,119.568352 171.675812,123.758041 186.907990,135.023346   C194.498215,140.636871 200.385437,147.846359 203.945312,156.650696   C205.409653,160.272293 207.107788,161.769272 211.383224,162.197372   C233.361130,164.398148 250.681396,180.203400 255.072144,202.203201   C256.794952,210.835373 255.378555,218.961044 253.059448,227.530167  M202.526825,165.344025   C197.012619,167.735992 191.020050,169.419876 186.124298,172.727295   C181.601974,175.782410 181.950302,182.885620 185.598450,186.938339   C188.793289,190.487488 194.186127,190.776382 198.756317,187.833038   C204.380142,184.211121 207.405930,174.220459 202.526825,165.344025  z"/>
<path fill="#2B2C30" opacity="1.000000" stroke="none" d=" M641.245728,78.724640   C632.044312,79.181252 629.256104,76.188080 629.747253,67.157204   C629.802490,66.141121 629.229736,64.936584 628.605957,64.064079   C625.605042,59.866287 627.793701,56.672024 630.347229,53.380741   C631.459961,51.946579 632.528137,50.296589 632.993286,48.576111   C634.265930,43.868767 638.094971,41.279327 643.213196,42.047962   C647.706238,42.722710 651.417908,47.319382 650.908936,51.578648   C650.222168,57.325905 651.468201,59.530182 656.817871,61.332283   C654.706482,63.080406 648.623657,63.639336 656.097778,68.513046   C653.307007,68.326256 652.190918,67.929771 651.378296,68.266281   C649.836914,68.904602 648.145203,69.684982 647.098816,70.905907   C645.060791,73.283752 643.424805,76.006180 641.245728,78.724640  M644.023254,55.317924   C643.364197,55.749866 642.257996,56.071430 642.119629,56.631893   C641.307495,59.922333 640.721375,63.268551 639.980408,66.990715   C644.041931,67.116272 647.959290,67.225395 649.463501,63.104431   C650.900269,59.168232 647.700134,57.275902 644.023254,55.317924  M638.044739,55.011475   C634.054626,53.613190 630.990906,55.331009 630.289856,58.982994   C629.523621,62.973988 632.754517,64.785629 636.503174,65.914116   C637.072815,62.299099 637.582214,59.066589 638.044739,55.011475  M643.284668,52.051270   C644.457153,51.988605 645.629639,51.925941 646.802124,51.863274   C646.661804,50.588356 646.993103,48.804611 646.282043,48.145489   C644.845642,46.814102 642.480896,44.955990 641.155823,45.377907   C638.969971,46.073929 637.305054,48.405937 634.664734,50.707184   C638.401123,51.327923 640.452332,51.668701 643.284668,52.051270  M638.496460,75.906952   C640.409973,74.458740 642.323486,73.010536 644.237000,71.562325   C643.932068,71.187637 643.627136,70.812943 643.322205,70.438248   C640.018616,69.876556 636.715088,69.314865 633.361023,68.744583   C632.117004,72.961395 634.690674,74.542152 638.496460,75.906952  z"/>
<path fill="#2D2E32" opacity="1.000000" stroke="none" d=" M76.243401,135.109955   C77.541084,133.797943 78.758072,132.815399 80.098747,131.733002   C78.854126,130.757385 78.008438,130.094467 77.162750,129.431549   C78.067955,129.080811 79.203697,128.959366 79.829224,128.330444   C81.041809,127.111336 82.620262,125.724594 82.895538,124.199463   C83.924904,118.496323 86.348686,115.979286 91.589027,116.015816   C96.607895,116.050812 98.054489,119.214119 100.280983,123.759239   C103.605850,130.546555 102.691589,135.981155 100.308838,142.704529   C98.208633,148.630676 95.843376,152.272934 89.802032,150.761566   C87.435890,150.169632 84.111176,147.808685 83.770905,145.817917   C82.908875,140.774551 81.864532,136.625443 76.243401,135.109955  M86.488113,128.413589   C85.064346,130.398941 82.025169,133.312683 82.529381,134.190048   C83.870384,136.523438 86.738754,137.979050 88.999725,139.783752   C89.435051,139.437927 89.870377,139.092087 90.305702,138.746262   C90.305702,135.945114 90.195015,133.138260 90.338615,130.344482   C90.467476,127.837524 89.238655,127.558014 86.488113,128.413589  M95.851944,128.135162   C95.209778,128.570465 94.037178,128.976715 94.011490,129.445801   C93.844070,132.503067 93.925461,135.573975 93.925461,138.640411   C94.381485,138.943954 94.837509,139.247482 95.293533,139.551025   C97.163399,137.618759 99.782707,135.947769 100.585922,133.643661   C100.985550,132.497253 98.055435,130.190094 95.851944,128.135162  M94.609383,141.933167   C91.836441,141.933167 89.063492,141.933167 85.475113,141.933167   C86.732124,143.951828 87.405151,146.404831 88.807457,146.937347   C90.560837,147.603165 93.104683,147.100403 94.915413,146.258896   C95.653801,145.915726 98.985847,143.617538 94.609383,141.933167  M95.857819,121.689590   C93.915459,120.835976 91.782845,119.049004 90.085037,119.395073   C88.435219,119.731361 87.231255,122.255020 85.831512,123.818153   C89.320297,124.992119 92.075615,125.127121 94.795036,124.874985   C95.321045,124.826218 95.706764,123.264420 95.857819,121.689590  z"/>
<path fill="#367CFF" opacity="1.000000" stroke="none" d=" M86.494736,387.558899   C100.427986,379.820770 114.067322,372.324738 127.931473,364.584625   C132.115372,362.281525 136.074463,360.222504 140.453857,357.944885   C157.106110,396.377502 173.670090,434.606415 190.662460,473.824005   C192.365158,471.613525 193.648987,470.020081 194.855255,468.369934   C215.775375,439.752197 236.624817,411.082458 257.636780,382.532349   C263.751282,374.224274 271.226593,367.453033 281.758423,364.282654   C296.099487,361.166962 310.267822,359.966370 324.574951,362.003174   C327.847900,362.469116 331.073578,363.267059 334.702240,364.452209   C336.018585,380.425598 343.589783,390.385254 358.237213,395.109589   C368.537170,398.431732 379.092285,398.783539 389.737915,397.168091   C408.310394,394.349762 419.804962,382.771545 422.466400,364.249969   C438.484344,361.350861 454.510162,358.566986 470.713867,362.975159   C473.263184,363.668640 475.752075,364.584381 478.671143,365.455292   C492.733093,372.016815 502.414185,382.551697 510.906830,394.908234   C528.910828,421.103638 547.644592,446.797455 566.090637,472.688751   C566.364197,473.072754 566.786438,473.350891 567.723328,474.220612   C580.438354,441.661835 593.018921,409.447449 605.771912,376.791473   C609.742310,378.905396 613.372437,380.838135 617.314636,382.840393   C631.177063,390.252075 644.727295,397.594238 658.638916,404.885193   C662.602844,406.986633 666.205383,409.139313 670.240906,411.550720   C665.496826,424.073761 660.767456,436.558105 655.730347,449.650208   C641.274902,488.281555 627.153015,526.314697 612.952087,564.318420   C610.804810,570.064697 609.066345,576.169678 605.812927,581.261597   C589.969482,606.057922 554.084412,606.332153 537.574951,581.903137   C527.414185,566.868347 517.644165,551.569519 507.681885,536.400391   C506.765991,535.005859 505.727173,533.692078 504.030701,531.357056   C503.406982,554.296021 502.839233,575.762878 502.234070,597.228699   C501.830658,611.538513 501.373962,625.846863 500.941162,640.155823   C423.972015,640.157898 347.002838,640.159973 269.572693,640.188721   C268.149048,628.308472 267.070465,616.409668 266.246490,604.493286   C264.173004,574.506653 262.214355,544.512024 260.381836,513.811035   C259.985168,503.151886 259.416321,493.202332 258.847473,483.252777   C258.264618,483.292145 257.681793,483.331543 257.098969,483.370911   C257.223267,485.619446 257.257721,487.877258 257.488098,490.114868   C258.290863,497.912415 259.161346,505.702942 260.006104,513.496155   C258.654358,514.530579 257.005646,515.334290 255.995911,516.634399   C243.039963,533.315002 230.109268,550.016052 217.303238,566.811951   C198.498703,591.475220 161.423019,589.471741 147.728271,562.611877   C141.626724,550.644653 136.883835,537.983093 131.559509,525.621521   C112.958977,482.436218 94.373528,439.244476 75.786400,396.053406   C75.592102,395.601959 75.452194,395.127136 75.145721,394.267029   C78.808739,392.124542 82.504784,389.962738 86.494736,387.558899  z"/>
<path fill="#EBF2FF" opacity="1.000000" stroke="none" d=" M501.026825,640.599182   C501.373962,625.846863 501.830658,611.538513 502.234070,597.228699   C502.839233,575.762878 503.406982,554.296021 504.030701,531.357056   C505.727173,533.692078 506.765991,535.005859 507.681885,536.400391   C517.644165,551.569519 527.414185,566.868347 537.574951,581.903137   C554.084412,606.332153 589.969482,606.057922 605.812927,581.261597   C609.066345,576.169678 610.804810,570.064697 612.952087,564.318420   C627.153015,526.314697 641.274902,488.281555 655.695923,450.015137   C658.312378,458.551453 661.357849,467.214294 662.836060,476.136780   C665.120911,489.928986 666.811768,503.862671 667.863342,517.803589   C668.845642,530.826355 669.584045,543.994995 668.756897,556.992981   C667.820496,571.706543 665.254944,586.337952 662.984924,600.940857   C657.869202,633.849365 646.172668,664.583313 630.473450,693.726196   C623.242371,707.149414 614.207214,719.600891 605.988098,732.491699   C605.385681,733.436523 604.766663,734.370850 604.037476,735.645142   C602.438110,736.155640 600.956726,736.482666 599.475159,736.484009   C568.849670,736.512207 538.224182,736.504639 507.598694,736.494751   C506.796692,736.494446 505.994751,736.388367 505.135803,736.327637   C503.787872,704.404297 502.450165,672.723389 501.026825,640.599182  z"/>
<path fill="#152440" opacity="1.000000" stroke="none" d=" M260.023010,513.528320   C259.161346,505.702942 258.290863,497.912415 257.488098,490.114868   C257.257721,487.877258 257.223267,485.619446 257.098969,483.370911   C257.681793,483.331543 258.264618,483.292145 258.847473,483.252777   C259.416321,493.202332 259.985168,503.151886 260.316254,513.361694   C260.078461,513.622009 260.039886,513.560486 260.023010,513.528320  z"/>
<path fill="#E78762" opacity="1.000000" stroke="none" d=" M422.103912,364.114258   C419.804962,382.771545 408.310394,394.349762 389.737915,397.168091   C379.092285,398.783539 368.537170,398.431732 358.237213,395.109589   C343.589783,390.385254 336.018585,380.425598 335.088562,364.577759   C341.642792,362.268646 345.249268,357.525116 348.098633,351.144348   C365.870392,349.991119 381.953796,341.866882 385.381775,332.382812   C379.599091,333.595734 373.864197,335.292938 368.018250,335.875519   C362.097015,336.465607 356.065979,335.953522 350.083038,335.924194   C328.651031,327.904083 320.775909,315.949524 320.230927,289.437225   C324.526062,288.980194 328.831604,288.492371 328.711670,283.823242   C328.594147,279.248901 324.387756,278.721436 320.500580,278.996338   C320.336426,279.007965 320.170807,278.998749 320.005859,278.999237   C320.374146,274.545715 320.397491,270.029602 321.191803,265.653412   C322.371643,259.153168 324.096954,252.751968 325.686432,245.892838   C348.037445,248.802338 369.743317,249.016464 389.867859,237.030792   C390.402405,241.608673 390.625732,245.917953 390.849091,250.227249   C391.111359,250.192459 391.373596,250.157684 391.635864,250.122894   C392.042847,247.464294 392.449829,244.805679 392.856812,242.147064   C395.880920,249.796829 398.905029,257.446594 401.987671,265.817017   C402.680725,267.692688 403.315186,268.847626 403.949677,270.002594   C408.316833,272.679840 412.447021,275.908020 417.104248,277.910767   C424.942749,281.281464 428.778259,286.014191 428.057190,293.107269   C427.299835,300.557526 420.261719,308.432556 412.960602,308.848022   C407.390625,309.164978 406.377808,312.871735 406.195068,316.694031   C405.759460,325.805359 405.710968,334.956482 406.003021,344.075653   C406.333649,354.399078 413.245392,359.908020 422.103912,364.114258  M363.285431,288.535309   C360.807068,292.054657 362.844330,294.329681 365.765381,295.670135   C369.069763,297.186523 372.637726,297.275238 375.017059,293.796814   C376.804474,291.183685 375.064606,287.644104 371.532654,287.208679   C369.017029,286.898560 366.371307,287.643158 363.285431,288.535309  M345.133423,273.652618   C343.549957,277.654846 341.837921,281.612976 340.443726,285.680084   C339.851166,287.408630 339.085724,290.340179 339.870178,291.015259   C341.494476,292.413055 344.103882,292.666046 346.308197,293.389832   C346.403656,293.003937 346.499115,292.618042 346.594604,292.232178   C344.700256,291.499207 342.805939,290.766266 340.643829,289.929718   C343.570129,282.374268 346.303955,275.315765 349.037781,268.257263   C348.606934,268.085449 348.176056,267.913666 347.745209,267.741882   C346.987579,269.480865 346.229950,271.219849 345.133423,273.652618  M326.895966,258.280426   C326.975525,260.141174 326.815155,262.071686 327.320068,263.808777   C327.432434,264.195343 330.419739,264.460297 331.131073,263.782227   C332.070312,262.886932 332.821960,260.159210 332.324646,259.718048   C331.126160,258.654968 329.154419,258.463654 326.895966,258.280426  M373.013428,255.235703   C366.261414,253.714645 366.261414,253.714645 363.433075,257.310577   C370.331207,255.857788 375.772339,257.709961 380.291718,262.591339   C380.597992,261.923981 380.904266,261.256592 381.210541,260.589203   C378.710907,258.917572 376.211304,257.245941 373.013428,255.235703  M365.317535,270.674500   C366.120056,268.863434 366.922577,267.052368 367.725098,265.241302   C366.129120,264.836578 364.493988,264.043488 362.954468,264.198700   C362.235901,264.271149 360.939667,266.534088 361.241394,267.182770   C361.900360,268.599640 363.414154,269.618958 365.317535,270.674500  M339.012787,252.117630   C340.239166,252.697586 341.465546,253.277557 343.175079,254.085999   C340.669189,248.075211 330.985992,246.975708 326.718811,251.022095   C330.264069,251.270706 334.259583,251.550888 339.012787,252.117630  M397.125275,261.359650   C396.561707,260.892181 395.998138,260.424713 395.434601,259.957275   C395.256104,260.085876 395.077637,260.214478 394.899170,260.343079   C395.467560,261.379211 396.035950,262.415314 396.604340,263.451447   C396.874634,262.935394 397.144897,262.419342 397.125275,261.359650  M392.981018,254.116837   C392.904083,253.539856 392.827179,252.962875 392.750244,252.385895   C392.514771,252.428101 392.279297,252.470306 392.043854,252.512497   C392.192963,253.183212 392.342072,253.853928 392.981018,254.116837  M394.163361,258.737793   C394.112366,258.581573 394.061371,258.425385 394.010376,258.269165   C393.959900,258.426147 393.909424,258.583130 394.163361,258.737793  M400.342621,267.525421   C400.147003,267.473785 399.951416,267.422180 399.755829,267.370544   C399.881500,267.496338 400.007202,267.622101 400.342621,267.525421  z"/>
<path fill="#794A36" opacity="1.000000" stroke="none" d=" M350.028046,336.359436   C356.065979,335.953522 362.097015,336.465607 368.018250,335.875519   C373.864197,335.292938 379.599091,333.595734 385.381775,332.382812   C381.953796,341.866882 365.870392,349.991119 348.325012,350.878967   C348.586182,346.184998 349.279602,341.489807 350.028046,336.359436  z"/>
<path fill="#D37C59" opacity="1.000000" stroke="none" d=" M319.898132,279.443054   C320.170807,278.998749 320.336426,279.007965 320.500580,278.996338   C324.387756,278.721436 328.594147,279.248901 328.711670,283.823242   C328.831604,288.492371 324.526062,288.980194 320.290741,288.983246   C319.847656,285.949219 319.819031,282.918030 319.898132,279.443054  z"/>
<path fill="#7E4C38" opacity="1.000000" stroke="none" d=" M392.912170,241.794785   C392.449829,244.805679 392.042847,247.464294 391.635864,250.122894   C391.373596,250.157684 391.111359,250.192459 390.849091,250.227249   C390.625732,245.917953 390.402405,241.608673 390.162476,236.786346   C391.086426,237.996368 392.026978,239.719437 392.912170,241.794785  z"/>
<path fill="#DC815D" opacity="1.000000" stroke="none" d=" M404.061768,269.660553   C403.315186,268.847626 402.680725,267.692688 402.073242,266.148987   C402.791443,266.946350 403.482666,268.132416 404.061768,269.660553  z"/>
<path fill="#000000" opacity="1.000000" stroke="none" d=" M554.791199,112.683060   C548.881897,118.379883 541.780090,118.473579 535.898132,113.431053   C528.704712,107.264267 525.762695,99.478394 525.885315,90.108238   C525.928772,86.788612 527.492004,85.211784 530.078857,85.250031   C538.768555,85.378487 547.394043,86.344261 553.723816,93.311615   C559.121887,99.253296 559.356201,104.787445 554.791199,112.683060  z"/>
<path fill="#000000" opacity="1.000000" stroke="none" d=" M202.913574,165.398804   C207.405930,174.220459 204.380142,184.211121 198.756317,187.833038   C194.186127,190.776382 188.793289,190.487488 185.598450,186.938339   C181.950302,182.885620 181.601974,175.782410 186.124298,172.727295   C191.020050,169.419876 197.012619,167.735992 202.913574,165.398804  z"/>
<path fill="#F2F2F2" opacity="1.000000" stroke="none" d=" M644.356689,55.508385   C647.700134,57.275902 650.900269,59.168232 649.463501,63.104431   C647.959290,67.225395 644.041931,67.116272 639.980408,66.990715   C640.721375,63.268551 641.307495,59.922333 642.119629,56.631893   C642.257996,56.071430 643.364197,55.749866 644.356689,55.508385  z"/>
<path fill="#EFEFEF" opacity="1.000000" stroke="none" d=" M638.068115,55.422779   C637.582214,59.066589 637.072815,62.299099 636.503174,65.914116   C632.754517,64.785629 629.523621,62.973988 630.289856,58.982994   C630.990906,55.331009 634.054626,53.613190 638.068115,55.422779  z"/>
<path fill="#000000" opacity="1.000000" stroke="none" d=" M642.894104,52.030373   C640.452332,51.668701 638.401123,51.327923 634.664734,50.707184   C637.305054,48.405937 638.969971,46.073929 641.155823,45.377907   C642.480896,44.955990 644.845642,46.814102 646.282043,48.145489   C646.993103,48.804611 646.661804,50.588356 646.802124,51.863274   C645.629639,51.925941 644.457153,51.988605 642.894104,52.030373  z"/>
<path fill="#000000" opacity="1.000000" stroke="none" d=" M638.121338,75.862137   C634.690674,74.542152 632.117004,72.961395 633.361023,68.744583   C636.715088,69.314865 640.018616,69.876556 643.322205,70.438248   C643.627136,70.812943 643.932068,71.187637 644.237000,71.562325   C642.323486,73.010536 640.409973,74.458740 638.121338,75.862137  z"/>
<path fill="#F7F7F7" opacity="1.000000" stroke="none" d=" M86.881104,128.256744   C89.238655,127.558014 90.467476,127.837524 90.338615,130.344482   C90.195015,133.138260 90.305702,135.945114 90.305702,138.746262   C89.870377,139.092087 89.435051,139.437927 88.999725,139.783752   C86.738754,137.979050 83.870384,136.523438 82.529381,134.190048   C82.025169,133.312683 85.064346,130.398941 86.881104,128.256744  z"/>
<path fill="#F3F3F3" opacity="1.000000" stroke="none" d=" M96.241768,128.271591   C98.055435,130.190094 100.985550,132.497253 100.585922,133.643661   C99.782707,135.947769 97.163399,137.618759 95.293533,139.551025   C94.837509,139.247482 94.381485,138.943954 93.925461,138.640411   C93.925461,135.573975 93.844070,132.503067 94.011490,129.445801   C94.037178,128.976715 95.209778,128.570465 96.241768,128.271591  z"/>
<path fill="#000000" opacity="1.000000" stroke="none" d=" M94.974724,141.864548   C98.985847,143.617538 95.653801,145.915726 94.915413,146.258896   C93.104683,147.100403 90.560837,147.603165 88.807457,146.937347   C87.405151,146.404831 86.732124,143.951828 85.475113,141.933167   C89.063492,141.933167 91.836441,141.933167 94.974724,141.864548  z"/>
<path fill="#000000" opacity="1.000000" stroke="none" d=" M96.007507,122.045082   C95.706764,123.264420 95.321045,124.826218 94.795036,124.874985   C92.075615,125.127121 89.320297,124.992119 85.831512,123.818153   C87.231255,122.255020 88.435219,119.731361 90.085037,119.395073   C91.782845,119.049004 93.915459,120.835976 96.007507,122.045082  z"/>
<path fill="#D47D59" opacity="1.000000" stroke="none" d=" M363.534546,288.226196   C366.371307,287.643158 369.017029,286.898560 371.532654,287.208679   C375.064606,287.644104 376.804474,291.183685 375.017059,293.796814   C372.637726,297.275238 369.069763,297.186523 365.765381,295.670135   C362.844330,294.329681 360.807068,292.054657 363.534546,288.226196  z"/>
<path fill="#32211B" opacity="1.000000" stroke="none" d=" M345.302887,273.305725   C346.229950,271.219849 346.987579,269.480865 347.745209,267.741882   C348.176056,267.913666 348.606934,268.085449 349.037781,268.257263   C346.303955,275.315765 343.570129,282.374268 340.643829,289.929718   C342.805939,290.766266 344.700256,291.499207 346.594604,292.232178   C346.499115,292.618042 346.403656,293.003937 346.308197,293.389832   C344.103882,292.666046 341.494476,292.413055 339.870178,291.015259   C339.085724,290.340179 339.851166,287.408630 340.443726,285.680084   C341.837921,281.612976 343.549957,277.654846 345.302887,273.305725  z"/>
<path fill="#1C1512" opacity="1.000000" stroke="none" d=" M327.195251,258.100586   C329.154419,258.463654 331.126160,258.654968 332.324646,259.718048   C332.821960,260.159210 332.070312,262.886932 331.131073,263.782227   C330.419739,264.460297 327.432434,264.195343 327.320068,263.808777   C326.815155,262.071686 326.975525,260.141174 327.195251,258.100586  z"/>
<path fill="#33221B" opacity="1.000000" stroke="none" d=" M373.362549,255.404999   C376.211304,257.245941 378.710907,258.917572 381.210541,260.589203   C380.904266,261.256592 380.597992,261.923981 380.291718,262.591339   C375.772339,257.709961 370.331207,255.857788 363.433075,257.310577   C366.261414,253.714645 366.261414,253.714645 373.362549,255.404999  z"/>
<path fill="#1D1613" opacity="1.000000" stroke="none" d=" M364.948120,270.737579   C363.414154,269.618958 361.900360,268.599640 361.241394,267.182770   C360.939667,266.534088 362.235901,264.271149 362.954468,264.198700   C364.493988,264.043488 366.129120,264.836578 367.725098,265.241302   C366.922577,267.052368 366.120056,268.863434 364.948120,270.737579  z"/>
<path fill="#2B1D18" opacity="1.000000" stroke="none" d=" M338.633942,251.974350   C334.259583,251.550888 330.264069,251.270706 326.718811,251.022095   C330.985992,246.975708 340.669189,248.075211 343.175079,254.085999   C341.465546,253.277557 340.239166,252.697586 338.633942,251.974350  z"/>
<path fill="#DC815D" opacity="1.000000" stroke="none" d=" M397.270233,261.631470   C397.144897,262.419342 396.874634,262.935394 396.604340,263.451447   C396.035950,262.415314 395.467560,261.379211 394.899170,260.343079   C395.077637,260.214478 395.256104,260.085876 395.434601,259.957275   C395.998138,260.424713 396.561707,260.892181 397.270233,261.631470  z"/>
<path fill="#7E4C38" opacity="1.000000" stroke="none" d=" M392.736115,254.320740   C392.342072,253.853928 392.192963,253.183212 392.043854,252.512497   C392.279297,252.470306 392.514771,252.428101 392.750244,252.385895   C392.827179,252.962875 392.904083,253.539856 392.736115,254.320740  z"/>
<path fill="#DC815D" opacity="1.000000" stroke="none" d=" M394.011169,258.738953   C393.909424,258.583130 393.959900,258.426147 394.010376,258.269165   C394.061371,258.425385 394.112366,258.581573 394.011169,258.738953  z"/>
<path fill="#DC815D" opacity="1.000000" stroke="none" d=" M400.237732,267.636658   C400.007202,267.622101 399.881500,267.496338 399.755829,267.370544   C399.951416,267.422180 400.147003,267.473785 400.237732,267.636658  z"/>
</svg>