<svg xmlns="http://www.w3.org/2000/svg" width="122" height="36" viewBox="0 0 122 36" fill="none"><path d="M2.43311 26.3894C3.19887 27.538 4.55171 28.1124 6.49164 28.1124C7.12977 28.1124 7.67857 28.0613 8.13802 27.9592C8.623 27.8826 9.01865 27.7805 9.32495 27.6529L8.63577 23.4795C8.48261 23.505 8.35499 23.5306 8.25289 23.5561H7.94658C7.71685 23.5561 7.48713 23.4412 7.2574 23.2115C7.0532 22.9818 6.95109 22.5734 6.95109 21.9863V0.812988H1.32275V21.7565C1.32275 23.6709 1.69287 25.2152 2.43311 26.3894Z" fill="#101828"></path><path d="M39.6386 26.0831C40.583 27.4359 42.089 28.1124 44.1566 28.1124C45.4584 28.1124 46.5815 27.8316 47.5259 27.27C48.4704 26.7085 49.3382 25.9555 50.1295 25.011H50.2444L50.6656 27.6529H55.2601V8.66203H49.6318V21.2205C49.0702 21.9607 48.5469 22.4968 48.062 22.8286C47.577 23.1604 46.9771 23.3263 46.2624 23.3263C45.4456 23.3263 44.8458 23.0711 44.4629 22.5606C44.08 22.0246 43.8886 21.0801 43.8886 19.7273V8.66203H38.2602V20.4547C38.2602 22.8286 38.7197 24.7047 39.6386 26.0831Z" fill="#101828"></path><path fill-rule="evenodd" clip-rule="evenodd" d="M67.6026 27.4997C68.4705 27.9081 69.3256 28.1124 70.1679 28.1124C71.5463 28.1124 72.8353 27.7167 74.035 26.9254C75.2602 26.1086 76.2557 24.9344 77.0215 23.4029C77.7872 21.8459 78.1701 19.9825 78.1701 17.8129C78.1701 15.8729 77.8638 14.1883 77.2512 12.7589C76.6641 11.3039 75.809 10.1808 74.6859 9.38951C73.5628 8.59822 72.2355 8.20258 70.7039 8.20258C69.8361 8.20258 68.9682 8.39402 68.1004 8.7769C67.2325 9.13425 66.4285 9.64476 65.6882 10.3084L65.8414 7.39853V0.812988H60.213V27.6529H64.6161L65.0756 25.6236H65.2288C65.969 26.4404 66.7603 27.0658 67.6026 27.4997ZM71.3548 22.1777C70.6657 23.0711 69.8361 23.5178 68.8661 23.5178C68.3811 23.5178 67.8834 23.4284 67.3729 23.2498C66.8624 23.0711 66.3519 22.752 65.8414 22.2926V14.5201C66.8879 13.3715 67.9727 12.7971 69.0958 12.7971C71.291 12.7971 72.3886 14.5073 72.3886 17.9277C72.3886 19.8677 72.044 21.2843 71.3548 22.1777Z" fill="#101828"></path><path fill-rule="evenodd" clip-rule="evenodd" d="M89.5509 27.4997C90.4188 27.9081 91.2739 28.1124 92.1162 28.1124C93.4946 28.1124 94.7836 27.7167 95.9833 26.9254C97.2085 26.1086 98.204 24.9344 98.9698 23.4029C99.7355 21.8459 100.118 19.9825 100.118 17.8129C100.118 15.8729 99.8121 14.1883 99.1995 12.7589C98.6124 11.3039 97.7573 10.1808 96.6342 9.38951C95.5111 8.59822 94.1838 8.20258 92.6523 8.20258C91.7844 8.20258 90.9165 8.39402 90.0487 8.7769C89.1808 9.13425 88.3768 9.64476 87.6365 10.3084L87.7897 7.39853V0.812988H82.1613V27.6529H86.5645L87.0239 25.6236H87.1771C87.9173 26.4404 88.7086 27.0658 89.5509 27.4997ZM93.3032 22.1777C92.614 23.0711 91.7844 23.5178 90.8144 23.5178C90.3294 23.5178 89.8317 23.4284 89.3212 23.2498C88.8107 23.0711 88.3002 22.752 87.7897 22.2926V14.5201C88.8362 13.3715 89.921 12.7971 91.0442 12.7971C93.2393 12.7971 94.3369 14.5073 94.3369 17.9277C94.3369 19.8677 93.9923 21.2843 93.3032 22.1777Z" fill="#101828"></path><path d="M104.423 34.9659C104.857 35.0425 105.355 35.0808 105.916 35.0808C107.422 35.0808 108.673 34.8128 109.669 34.2767C110.69 33.7407 111.557 32.9239 112.272 31.8263C112.987 30.7542 113.638 29.4269 114.225 27.8443L120.81 8.66203H115.412L113.115 16.8174C112.885 17.7108 112.655 18.6169 112.425 19.5358L111.813 22.216H111.66C111.404 21.2716 111.162 20.3526 110.932 19.4593C110.702 18.5659 110.447 17.6852 110.166 16.8174L107.448 8.66203H101.781L109.094 27.1551L108.826 28.1506C108.571 28.8909 108.188 29.4907 107.678 29.9502C107.167 30.4096 106.44 30.6394 105.495 30.6394C105.291 30.6394 105.074 30.6011 104.844 30.5245C104.615 30.4734 104.41 30.4352 104.232 30.4096L103.236 34.6979C103.619 34.8 104.015 34.8893 104.423 34.9659Z" fill="#101828"></path><path fill-rule="evenodd" clip-rule="evenodd" d="M23.2578 28.1021C28.62 28.0878 32.9625 23.7365 32.9625 18.3709C32.9625 12.9965 28.6057 8.63965 23.2312 8.63965C17.8568 8.63965 13.5 12.9965 13.5 18.3709C13.5 23.7342 17.8388 28.084 23.1978 28.1021C21.306 28.0956 19.4558 27.5377 17.8744 26.495L20.4454 22.5959C19.075 21.6905 18.171 20.1363 18.171 18.3709C18.171 15.5762 20.4366 13.3106 23.2312 13.3106C26.0259 13.3106 28.2915 15.5762 28.2915 18.3709C28.2915 20.0856 27.4386 21.6011 26.1339 22.5164L28.8129 26.3423C27.2149 27.4611 25.3176 28.074 23.3671 28.1012C23.3307 28.1017 23.2942 28.102 23.2578 28.1021Z" fill="#1A73E8"></path></svg>