<svg xmlns="http://www.w3.org/2000/svg" width="40" height="40" viewBox="0 0 40 40" fill="none">
<path d="M0 4C0 1.79086 1.79086 0 4 0H36C38.2091 0 40 1.79086 40 4V36C40 38.2091 38.2091 40 36 40H4C1.79086 40 0 38.2091 0 36V4Z" fill="#ECFDF3"/>
<path d="M19.125 23.5H13.875C13.1788 23.5 12.5111 23.7766 12.0188 24.2688C11.5266 24.7611 11.25 25.4288 11.25 26.125V27.875H13V26.125C13 25.8929 13.0922 25.6704 13.2563 25.5063C13.4204 25.3422 13.6429 25.25 13.875 25.25H19.125C19.3571 25.25 19.5796 25.3422 19.7437 25.5063C19.9078 25.6704 20 25.8929 20 26.125V27.875H21.75V26.125C21.75 25.4288 21.4734 24.7611 20.9812 24.2688C20.4889 23.7766 19.8212 23.5 19.125 23.5ZM16.5 22.625C17.1922 22.625 17.8689 22.4197 18.4445 22.0351C19.0201 21.6506 19.4687 21.1039 19.7336 20.4644C19.9985 19.8249 20.0678 19.1211 19.9327 18.4422C19.7977 17.7633 19.4644 17.1396 18.9749 16.6501C18.4854 16.1606 17.8617 15.8273 17.1828 15.6923C16.5039 15.5572 15.8001 15.6265 15.1606 15.8914C14.5211 16.1563 13.9744 16.6049 13.5899 17.1805C13.2053 17.7561 13 18.4328 13 19.125C13 20.0533 13.3687 20.9435 14.0251 21.5999C14.6815 22.2563 15.5717 22.625 16.5 22.625ZM16.5 17.375C16.8461 17.375 17.1845 17.4776 17.4722 17.6699C17.76 17.8622 17.9843 18.1355 18.1168 18.4553C18.2492 18.7751 18.2839 19.1269 18.2164 19.4664C18.1489 19.8059 17.9822 20.1177 17.7374 20.3624C17.4927 20.6072 17.1809 20.7739 16.8414 20.8414C16.5019 20.9089 16.1501 20.8742 15.8303 20.7418C15.5105 20.6093 15.2372 20.385 15.0449 20.0973C14.8526 19.8095 14.75 19.4711 14.75 19.125C14.75 18.6609 14.9344 18.2158 15.2626 17.8876C15.5908 17.5594 16.0359 17.375 16.5 17.375Z" fill="#12B76A"/>
<path d="M30.5 22.625V30.5H9.5V13H20V11.25H9.5C9.03587 11.25 8.59075 11.4344 8.26256 11.7626C7.93437 12.0908 7.75 12.5359 7.75 13V30.5C7.75 30.9641 7.93437 31.4092 8.26256 31.7374C8.59075 32.0656 9.03587 32.25 9.5 32.25H30.5C30.9641 32.25 31.4092 32.0656 31.7374 31.7374C32.0656 31.4092 32.25 30.9641 32.25 30.5V22.625H30.5Z" fill="#12B76A"/>
<path d="M23.5 22.625H28.75V24.375H23.5V22.625ZM25.25 26.125H28.75V27.875H25.25V26.125ZM34 14.75V13H32.1616C32.0488 12.4523 31.8313 11.9315 31.5211 11.4661L32.8249 10.1624L31.5876 8.92512L30.2839 10.2289C29.8185 9.9187 29.2977 9.70122 28.75 9.58837V7.75H27V9.58837C26.4523 9.70122 25.9315 9.9187 25.4661 10.2289L24.1624 8.92512L22.9251 10.1624L24.2289 11.4661C23.9187 11.9315 23.7012 12.4523 23.5884 13H21.75V14.75H23.5884C23.7012 15.2977 23.9187 15.8185 24.2289 16.2839L22.9251 17.5876L24.1624 18.8249L25.4661 17.5211C25.9315 17.8313 26.4523 18.0488 27 18.1616V20H28.75V18.1616C29.2977 18.0488 29.8185 17.8313 30.2839 17.5211L31.5876 18.8249L32.8249 17.5876L31.5211 16.2839C31.8313 15.8185 32.0488 15.2977 32.1616 14.75H34ZM27.875 16.5C27.3558 16.5 26.8483 16.346 26.4166 16.0576C25.9849 15.7692 25.6485 15.3592 25.4498 14.8795C25.2511 14.3999 25.1992 13.8721 25.3004 13.3629C25.4017 12.8537 25.6517 12.386 26.0188 12.0188C26.386 11.6517 26.8537 11.4017 27.3629 11.3004C27.8721 11.1992 28.3999 11.2511 28.8795 11.4498C29.3592 11.6485 29.7692 11.9849 30.0576 12.4166C30.346 12.8483 30.5 13.3558 30.5 13.875C30.4993 14.571 30.2225 15.2383 29.7304 15.7304C29.2383 16.2225 28.571 16.4993 27.875 16.5Z" fill="#12B76A"/>
</svg>