<?xml version="1.0" encoding="UTF-8"?>
<svg xmlns="http://www.w3.org/2000/svg" xmlns:xlink="http://www.w3.org/1999/xlink" width="2000pt" height="2000pt" viewBox="0 0 2000 2000" version="1.1">
<g id="surface1">
<path style=" stroke:none;fill-rule:nonzero;fill:rgb(100%,77.34375%,28.637695%);fill-opacity:1;" d="M 678.984375 1163.898438 C 587.675781 1163.898438 513.65625 1089.878906 513.65625 998.570313 C 513.65625 798.25 575.019531 648.03125 696.035156 552.089844 C 842.6875 435.808594 1059.429688 413.371094 1358.691406 483.488281 C 1447.589844 504.320313 1502.769531 593.269531 1481.941406 682.179688 C 1461.101563 771.070313 1372.230469 826.25 1283.261719 805.429688 C 1031.710938 746.480469 936.070313 783.738281 901.441406 811.199219 C 863.539063 841.261719 844.3125 904.300781 844.3125 998.570313 C 844.3125 1089.878906 770.292969 1163.898438 678.984375 1163.898438 "/>
<path style=" stroke:none;fill-rule:nonzero;fill:rgb(96.875%,35.301208%,53.709412%);fill-opacity:1;" d="M 1050.421875 1556.28125 C 906.546875 1556.28125 790.625 1520.941406 699.8125 1449.980469 C 576.289063 1353.46875 513.65625 1201.589844 513.65625 998.570313 C 513.65625 910.320313 587.675781 834.539063 678.984375 834.539063 C 770.292969 834.539063 844.3125 907.261719 844.3125 998.570313 C 844.3125 1094.589844 864.183594 1158.800781 903.394531 1189.429688 C 938.527344 1216.878906 1034.28125 1253.769531 1280.980469 1192.261719 C 1369.660156 1170.210938 1459.320313 1224.109375 1481.398438 1312.699219 C 1503.480469 1401.289063 1449.550781 1491.019531 1360.960938 1513.101563 C 1245.578125 1541.859375 1142.289063 1556.28125 1050.421875 1556.28125 "/>
<path style=" stroke:none;fill-rule:nonzero;fill:rgb(16.479492%,80.46875%,71.289063%);fill-opacity:1;" d="M 1111.820313 1165.199219 L 678.984375 1165.199219 C 587.675781 1165.199219 513.65625 1091.179688 513.65625 999.871094 C 513.65625 908.558594 587.675781 834.539063 678.984375 834.539063 L 1111.820313 834.539063 C 1203.128906 834.539063 1277.148438 908.558594 1277.148438 999.871094 C 1277.148438 1091.179688 1203.128906 1165.199219 1111.820313 1165.199219 "/>
<path style=" stroke:none;fill-rule:nonzero;fill:rgb(16.479492%,61.914063%,20.384216%);fill-opacity:1;" d="M 679.144531 834.550781 C 679.195313 834.550781 679.246094 834.558594 679.300781 834.558594 C 682.5625 834.558594 685.578125 834.738281 688.46875 835.019531 C 774.742188 839.890625 843.304688 910.699219 844.335938 997.949219 C 844.402344 923.851563 856.363281 869.078125 879.996094 834.550781 L 679.144531 834.550781 "/>
<path style=" stroke:none;fill-rule:nonzero;fill:rgb(16.088867%,28.24707%,38.426208%);fill-opacity:1;" d="M 844.375 1001.101563 C 843.738281 1091.191406 771.109375 1164.078125 681.140625 1165.210938 L 880.910156 1165.210938 C 856.882813 1130.308594 844.65625 1075.269531 844.375 1001.101563 "/>
<path style=" stroke:none;fill-rule:nonzero;fill:rgb(16.088867%,21.972656%,10.984802%);fill-opacity:1;" d="M 844.433594 999.929688 C 844.433594 908.589844 770.390625 834.539063 679.050781 834.539063 C 587.710938 834.539063 513.664063 908.589844 513.664063 999.929688 C 513.664063 1091.269531 587.710938 1165.308594 679.050781 1165.308594 C 770.390625 1165.308594 844.433594 1091.269531 844.433594 999.929688 "/>
</g>
</svg>
