<svg xmlns="http://www.w3.org/2000/svg" width="40" height="40" viewBox="0 0 40 40" fill="none">
<path d="M0 4C0 1.79086 1.79086 0 4 0H36C38.2091 0 40 1.79086 40 4V36C40 38.2091 38.2091 40 36 40H4C1.79086 40 0 38.2091 0 36V4Z" fill="#EAF3FF"/>
<g clip-path="url(#clip0_20106_88242)">
<path d="M32 23.0004V32.0004H20V23.0004H23V20.0004H29V23.0004H32ZM24.5 23.0004H27.5V21.5004H24.5V23.0004ZM30.5 27.5004H29V29.0004H27.5V27.5004H24.5V29.0004H23V27.5004H21.5V30.5004H30.5V27.5004ZM30.5 24.5004H21.5V26.0004H30.5V24.5004ZM26.3398 18.5004C25.918 18.0238 25.418 17.6566 24.8398 17.3988C24.2617 17.141 23.6484 17.0082 23 17.0004C22.375 17.0004 21.793 17.1176 21.2539 17.3519C20.7148 17.5863 20.2383 17.9066 19.8242 18.3129C19.4102 18.7191 19.0859 19.1996 18.8516 19.7543C18.6172 20.309 18.5 20.891 18.5 21.5004C18.5 22.2191 18.3398 22.8949 18.0195 23.5277C17.6992 24.1605 17.2461 24.6918 16.6602 25.1215C17.0117 25.3011 17.3398 25.5082 17.6445 25.7426C17.9492 25.9769 18.2344 26.2426 18.5 26.5394V30.5004C18.5 29.8832 18.3828 29.3011 18.1484 28.7543C17.9141 28.2074 17.5938 27.7308 17.1875 27.3246C16.7812 26.9183 16.3008 26.5941 15.7461 26.3519C15.1914 26.1097 14.6094 25.9926 14 26.0004C13.375 26.0004 12.793 26.1176 12.2539 26.3519C11.7148 26.5863 11.2383 26.9066 10.8242 27.3129C10.4102 27.7191 10.0859 28.1996 9.85156 28.7543C9.61719 29.309 9.5 29.891 9.5 30.5004H8C8 29.9301 8.07812 29.3793 8.23438 28.848C8.39062 28.3168 8.61328 27.8129 8.90234 27.3363C9.19141 26.8597 9.54297 26.4379 9.95703 26.0707C10.3711 25.7035 10.832 25.3871 11.3398 25.1215C10.7617 24.6996 10.3125 24.1722 9.99219 23.5394C9.67188 22.9066 9.50781 22.2269 9.5 21.5004C9.5 20.8832 9.61719 20.3011 9.85156 19.7543C10.0859 19.2074 10.4062 18.7308 10.8125 18.3246C11.2188 17.9183 11.6953 17.5941 12.2422 17.3519C12.7891 17.1097 13.375 16.9926 14 17.0004C14.7188 17.0004 15.3945 17.1605 16.0273 17.4808C16.6602 17.8011 17.1914 18.2543 17.6211 18.8402C17.918 18.2543 18.2969 17.7308 18.7578 17.2699C19.2188 16.809 19.7461 16.4261 20.3398 16.1215C19.7617 15.6996 19.3125 15.1722 18.9922 14.5394C18.6719 13.9066 18.5078 13.2269 18.5 12.5004C18.5 11.8832 18.6172 11.3011 18.8516 10.7543C19.0859 10.2074 19.4062 9.73083 19.8125 9.32458C20.2188 8.91833 20.6953 8.59412 21.2422 8.35193C21.7891 8.10974 22.375 7.99255 23 8.00037C23.6172 8.00037 24.1992 8.11755 24.7461 8.35193C25.293 8.5863 25.7695 8.90662 26.1758 9.31287C26.582 9.71912 26.9062 10.1996 27.1484 10.7543C27.3906 11.309 27.5078 11.891 27.5 12.5004C27.5 13.2191 27.3398 13.8949 27.0195 14.5277C26.6992 15.1605 26.2461 15.6918 25.6602 16.1215C26.1914 16.3871 26.6719 16.7191 27.1016 17.1176C27.5312 17.516 27.8945 17.9769 28.1914 18.5004H26.3398ZM14 24.5004C14.4141 24.5004 14.8008 24.4222 15.1602 24.266C15.5195 24.1097 15.8398 23.8949 16.1211 23.6215C16.4023 23.348 16.6172 23.0316 16.7656 22.6722C16.9141 22.3129 16.9922 21.9222 17 21.5004C17 21.0863 16.9219 20.6996 16.7656 20.3402C16.6094 19.9808 16.3945 19.6605 16.1211 19.3793C15.8477 19.098 15.5312 18.8832 15.1719 18.7347C14.8125 18.5863 14.4219 18.5082 14 18.5004C13.5859 18.5004 13.1992 18.5785 12.8398 18.7347C12.4805 18.891 12.1602 19.1058 11.8789 19.3793C11.5977 19.6527 11.3828 19.9691 11.2344 20.3285C11.0859 20.6879 11.0078 21.0785 11 21.5004C11 21.9144 11.0781 22.3011 11.2344 22.6605C11.3906 23.0199 11.6055 23.3402 11.8789 23.6215C12.1523 23.9027 12.4688 24.1176 12.8281 24.266C13.1875 24.4144 13.5781 24.4926 14 24.5004ZM20 12.5004C20 12.9144 20.0781 13.3011 20.2344 13.6605C20.3906 14.0199 20.6055 14.3402 20.8789 14.6215C21.1523 14.9027 21.4688 15.1176 21.8281 15.266C22.1875 15.4144 22.5781 15.4926 23 15.5004C23.4141 15.5004 23.8008 15.4222 24.1602 15.266C24.5195 15.1097 24.8398 14.8949 25.1211 14.6215C25.4023 14.348 25.6172 14.0316 25.7656 13.6722C25.9141 13.3129 25.9922 12.9222 26 12.5004C26 12.0863 25.9219 11.6996 25.7656 11.3402C25.6094 10.9808 25.3945 10.6605 25.1211 10.3793C24.8477 10.098 24.5312 9.88318 24.1719 9.73474C23.8125 9.5863 23.4219 9.50818 23 9.50037C22.5859 9.50037 22.1992 9.57849 21.8398 9.73474C21.4805 9.89099 21.1602 10.1058 20.8789 10.3793C20.5977 10.6527 20.3828 10.9691 20.2344 11.3285C20.0859 11.6879 20.0078 12.0785 20 12.5004Z" fill="#2E71F3"/>
</g>
<defs>
<clipPath id="clip0_20106_88242">
<rect width="24" height="24" fill="white" transform="translate(8 8)"/>
</clipPath>
</defs>
</svg>