<svg viewBox="0 0 32 32" fill="none" xmlns="http://www.w3.org/2000/svg"><path fill-rule="evenodd" clip-rule="evenodd" d="M16.0567 31.9999C24.8672 31.9693 32 24.8177 32 16C32 7.16344 24.8366 0 16 0C7.16344 0 0 7.16344 0 16C0 24.813 7.12524 31.9617 15.9293 31.9998C12.6727 31.9855 9.49493 30.9775 6.82278 29.1064L11.2274 22.8159C9.08229 21.3111 7.68 18.8193 7.68 16C7.68 11.405 11.405 7.68 16 7.68C20.595 7.68 24.32 11.405 24.32 16C24.32 18.7151 23.0195 21.1264 21.0074 22.645L25.629 28.7782C22.9306 30.8116 19.6576 31.9386 16.2792 31.9976C16.205 31.9989 16.1308 31.9996 16.0567 31.9999Z" fill="#1A73E8"></path></svg>